<?xml version="1.0" encoding="utf-8"?>
<!-- Generator: Adobe Illustrator 24.0.2, SVG Export Plug-In . SVG Version: 6.00 Build 0)  -->
<svg version="1.1" id="ロゴタイプw44px" xmlns="http://www.w3.org/2000/svg" xmlns:xlink="http://www.w3.org/1999/xlink"
	 x="0px" y="0px" width="133.684px" height="44px" viewBox="0 0 133.684 44" enable-background="new 0 0 133.684 44"
	 xml:space="preserve">
<path fill="#FFFFFF" d="M34.16,19.754c-1.572,0-3.832-0.007-6.718-0.022l-0.416-0.002v0.416c0,0.88-0.05,1.855-0.15,2.897
	l-0.045,0.469l0.471-0.017c2.042-0.073,3.873-0.11,5.442-0.11h1.941l-0.469,9.707c-1.494,0.394-2.99,0.679-4.45,0.849
	c-1.558,0.181-2.919,0.273-4.045,0.273c-2.058,0-3.988-0.251-5.736-0.746c-1.735-0.491-3.223-1.207-4.421-2.127
	c-1.182-0.907-2.077-2.093-2.661-3.526c-0.592-1.451-0.892-3.029-0.892-4.69c0-1.864,0.372-3.697,1.105-5.448
	c0.729-1.74,1.812-3.221,3.219-4.402c1.415-1.186,3.141-2.08,5.13-2.657c2.008-0.582,4.154-0.895,6.378-0.878
	c1.186,0.009,2.636,0.016,4.07,0.021c-0.004,0.004-0.008,0.009-0.012,0.013c0.845,0.003,2.396-0.005,3.137-0.003
	c0.336,0.001,2.542,0.002,2.542,0.002L40.577,6c-1.522,0.002-3.864,0-5.199,0c0,0-0.002,0.002-0.003,0.003c-0.021,0-0.042,0-0.062,0
	C31.245,6.004,28.357,6,27.641,6c-2.968,0-5.715,0.324-8.164,0.963c-2.467,0.644-4.718,1.73-6.689,3.228
	c-1.98,1.504-3.538,3.392-4.63,5.61c-1.093,2.218-1.647,4.615-1.647,7.126c0,2.211,0.441,4.339,1.309,6.325
	c0.876,2.001,2.199,3.662,3.934,4.936c1.72,1.263,3.854,2.214,6.344,2.828c2.47,0.608,5.09,0.917,7.786,0.917
	c3.627,0,8.052-0.485,13.154-1.442l0.328-0.061l0.009-0.333c0.172-6.186,0.452-11.541,0.831-15.915l0.039-0.452l-0.454,0.003
	C37.722,19.746,35.828,19.754,34.16,19.754z"/>
<path fill="#FFFFFF" d="M65.447,15.27l-9.118,9.732c-1.309-1.686-7.738-9.732-7.738-9.732L42.6,15.267l10.85,12.836
	c-0.221,3.173-1.001,9.891-1.001,9.891s2.376-0.041,2.799-0.041c0.423,0,1.184,0.01,2.325,0.032l0.414,0.008l0.055-2.456
	l0.457-7.207l2.873-2.944l10.101-10.12L65.447,15.27z"/>
<path fill="#FFFFFF" d="M93.522,22.985c1.065-0.484,1.998-1.117,2.772-1.881c0.778-0.768,1.377-1.638,1.781-2.588
	c0.405-0.95,0.61-1.995,0.61-3.104c0-1.167-0.264-2.228-0.784-3.155c-0.519-0.924-1.333-1.743-2.421-2.433
	c-1.079-0.685-2.316-1.129-3.677-1.32C90.481,8.318,89,8.224,87.4,8.224c-0.898,0-2.07,0.014-3.483,0.042
	c-1.391,0.028-2.687,0.042-3.851,0.042c-1.357,0-3.072-0.014-5.097-0.042L74.551,8.26V8.68c0,0.758-0.017,2.009-0.051,3.819
	l-0.255,8.843L73.657,31.85l-0.552,6.148l0.462-0.01c1.275-0.028,2.109-0.042,2.473-0.042l2.929,0.049l0.006-0.414
	c0.117-7.806,0.435-16.466,0.947-25.747c0.537,0.008,1.408,0.013,2.605,0.013c0.003,0,0.006,0,0.009,0l3.635-0.042
	c0.869,0,1.704,0.042,2.481,0.125c0.761,0.081,1.387,0.203,1.861,0.362c0.461,0.155,0.941,0.413,1.426,0.767
	c0.458,0.335,0.796,0.751,1.005,1.237c0.216,0.504,0.325,1.058,0.325,1.647c0,1.1-0.355,2.115-1.054,3.017
	c-0.706,0.91-1.727,1.594-3.035,2.031c-1.344,0.449-2.866,0.677-4.522,0.677c-0.985,0-2.137-0.098-3.425-0.292l-0.958-0.144
	l0.559,0.791c0.549,0.778,0.95,1.331,1.188,1.638l5.804,7.806c0.437,0.624,0.85,1.219,1.227,1.77
	c0.374,0.547,0.753,1.108,1.123,1.661l1.975,3.096l0.232-0.005c1.336-0.028,2.252-0.042,2.722-0.042
	c0.436,0,1.325,0.014,2.645,0.042l0.851,0.018l-0.511-0.68c-0.616-0.819-1.092-1.441-1.416-1.849l-4.659-5.899l-4.064-5.359
	c1.033-0.106,1.881-0.219,2.53-0.336C91.686,23.652,92.709,23.35,93.522,22.985z"/>
<path fill="#FFFFFF" d="M127.373,21.711c-0.536-1.34-1.447-2.564-2.706-3.638c-1.254-1.069-2.723-1.846-4.365-2.31
	c-1.624-0.459-3.362-0.691-5.166-0.691c-1.949,0-3.842,0.259-5.628,0.77c-1.802,0.516-3.363,1.319-4.64,2.386
	c-1.283,1.072-2.266,2.404-2.923,3.957c-0.653,1.545-0.984,3.18-0.984,4.86c0,1.531,0.276,2.999,0.819,4.364
	c0.549,1.379,1.452,2.594,2.684,3.611c1.223,1.01,2.721,1.767,4.451,2.251c1.713,0.479,3.527,0.723,5.391,0.723
	c1.961,0,3.859-0.267,5.64-0.795c1.797-0.532,3.334-1.344,4.57-2.413c1.242-1.074,2.173-2.4,2.769-3.94
	c0.591-1.526,0.89-3.139,0.89-4.794C128.174,24.501,127.904,23.041,127.373,21.711z M114.486,35.172
	c-1.32,0-2.604-0.178-3.816-0.529c-1.197-0.347-2.234-0.882-3.082-1.593c-0.841-0.704-1.487-1.598-1.92-2.658
	c-0.437-1.07-0.659-2.204-0.659-3.371c0-1.263,0.226-2.492,0.671-3.653c0.441-1.151,1.128-2.166,2.04-3.018
	c0.913-0.852,1.999-1.48,3.229-1.866c1.247-0.392,2.589-0.59,3.989-0.59c1.318,0,2.583,0.178,3.76,0.529
	c1.158,0.345,2.172,0.905,3.012,1.664c0.836,0.755,1.453,1.679,1.834,2.746c0.387,1.085,0.584,2.24,0.584,3.433
	c0,1.264-0.217,2.489-0.645,3.641c-0.423,1.138-1.081,2.123-1.955,2.926c-0.876,0.805-1.935,1.402-3.148,1.773
	C117.15,34.982,115.84,35.172,114.486,35.172z"/>
</svg>
