<?xml version="1.0" encoding="utf-8"?>
<svg version="1.1" id="ロゴタイプw44px" x="0px" y="0px" width="133.684px" height="44px" viewBox="0 0 133.684 44" enable-background="new 0 0 133.684 44" xmlns="http://www.w3.org/2000/svg">
  <path d="M 56.289 15.27 C 55.764 20.921 55.392 35.166 46.247 33.93 C 37.839 34.35 40.709 19.677 39.433 15.27 L 33.442 15.267 L 34.826 34.953 C 34.605 38.126 43.291 38.071 43.291 38.071 C 43.291 38.071 39.51 38.107 48.553 38.03 C 57.596 37.953 57.422 34.872 57.422 34.872 L 62.315 15.266 L 56.289 15.27 Z" style="fill: rgb(255, 255, 255);"/>
  <path d="M 124.756 21.711 C 124.22 20.371 123.309 19.147 122.05 18.073 C 120.796 17.004 119.327 16.227 117.685 15.763 C 116.061 15.304 114.323 15.072 112.519 15.072 C 110.57 15.072 108.677 15.331 106.891 15.842 C 105.089 16.358 103.528 17.161 102.251 18.228 C 100.968 19.3 99.985 20.632 99.328 22.185 C 98.675 23.73 98.344 25.365 98.344 27.045 C 98.344 28.576 98.62 30.044 99.163 31.409 C 99.712 32.788 100.615 34.003 101.847 35.02 C 103.07 36.03 104.568 36.787 106.298 37.271 C 108.011 37.75 109.825 37.994 111.689 37.994 C 113.65 37.994 115.548 37.727 117.329 37.199 C 119.126 36.667 120.663 35.855 121.899 34.786 C 123.141 33.712 124.072 32.386 124.668 30.846 C 125.259 29.32 125.558 27.707 125.558 26.052 C 125.557 24.501 125.287 23.041 124.756 21.711 Z M 111.869 35.172 C 110.549 35.172 109.265 34.994 108.053 34.643 C 106.856 34.296 105.819 33.761 104.971 33.05 C 104.13 32.346 103.484 31.452 103.051 30.392 C 102.614 29.322 102.392 28.188 102.392 27.021 C 102.392 25.758 102.618 24.529 103.063 23.368 C 103.504 22.217 104.191 21.202 105.103 20.35 C 106.016 19.498 107.102 18.87 108.332 18.484 C 109.579 18.092 110.921 17.894 112.321 17.894 C 113.639 17.894 114.904 18.072 116.081 18.423 C 117.239 18.768 118.253 19.328 119.093 20.087 C 119.929 20.842 120.546 21.766 120.927 22.833 C 121.314 23.918 121.511 25.073 121.511 26.266 C 121.511 27.53 121.294 28.755 120.866 29.907 C 120.443 31.045 119.785 32.03 118.911 32.833 C 118.035 33.638 116.976 34.235 115.763 34.606 C 114.533 34.982 113.223 35.172 111.869 35.172 Z" style="fill: rgb(255, 255, 255);"/>
  <path d="M 90.445 20.411 C 88.955 20.411 86.813 20.404 84.077 20.39 L 83.682 20.388 L 83.682 20.789 C 83.682 21.637 83.635 22.577 83.54 23.581 L 83.497 24.033 L 83.944 24.017 C 85.88 23.947 87.616 23.911 89.103 23.911 L 90.943 23.911 L 90.499 33.267 C 89.082 33.647 87.664 33.921 86.28 34.085 C 84.803 34.26 83.512 34.348 82.445 34.348 C 80.494 34.348 78.664 34.107 77.007 33.629 C 75.362 33.156 73.951 32.466 72.816 31.579 C 71.695 30.705 70.847 29.562 70.293 28.181 C 69.732 26.782 69.447 25.261 69.447 23.66 C 69.447 21.864 69.8 20.097 70.495 18.409 C 71.186 16.732 72.213 15.305 73.547 14.166 C 74.888 13.023 76.524 12.162 78.41 11.605 C 80.314 11.045 82.348 10.743 84.457 10.759 C 85.581 10.768 86.956 10.775 88.315 10.779 C 88.311 10.783 88.308 10.788 88.304 10.792 C 89.105 10.795 90.575 10.787 91.278 10.789 C 91.596 10.79 93.688 10.791 93.688 10.791 L 96.529 7.154 C 95.086 7.156 92.866 7.154 91.6 7.154 C 91.6 7.154 91.598 7.156 91.597 7.157 C 91.577 7.157 91.557 7.157 91.539 7.157 C 87.682 7.158 84.944 7.154 84.265 7.154 C 81.451 7.154 78.847 7.467 76.525 8.083 C 74.187 8.703 72.053 9.75 70.184 11.194 C 68.307 12.644 66.83 14.463 65.795 16.601 C 64.758 18.739 64.233 21.049 64.233 23.469 C 64.233 25.601 64.651 27.652 65.474 29.566 C 66.305 31.494 67.559 33.095 69.204 34.323 C 70.834 35.541 72.857 36.457 75.218 37.049 C 77.56 37.635 80.044 37.933 82.599 37.933 C 86.038 37.933 90.233 37.466 95.07 36.543 L 95.381 36.484 L 95.389 36.163 C 95.553 30.201 95.818 25.04 96.177 20.824 L 96.214 20.388 L 95.784 20.391 C 93.822 20.403 92.027 20.411 90.445 20.411 Z" style="fill: rgb(255, 255, 255);"/>
  <path d="M 31.276 8.988 C 32.119 9.079 31.661 4.683 29.891 4.683 C 28.897 4.683 27.599 4.7 26.036 4.73 C 24.496 4.762 23.061 4.777 21.773 4.777 C 20.271 4.777 18.373 4.762 16.132 4.73 L 5.617 4.983 L 5.363 9.499 C 5.368 10.396 15.836 9.087 15.613 9.467 L 15.331 19.362 L 14.68 31.119 L 14.069 37.998 L 14.58 37.987 C 15.992 37.955 16.915 37.94 17.317 37.94 L 20.559 37.995 L 20.566 37.531 C 20.695 28.798 21.047 19.658 21.614 9.274 C 22.208 9.282 30.416 8.895 31.276 8.988 Z" style="fill: rgb(255, 255, 255);"/>
</svg>